# xmcd CD database file
#
# Track frame offsets:
#	150
#	27375
#	53600
#	72350
#	92700
#	112012
#	129925
#	160912
#	179575
#	198399
#	215950
#
# Disc length: 3169 seconds
#
# Revision: 0
# Processed by: cddbd v1.5.2PL0 Copyright (c) Steve Scherf et al.
# Submitted via: CDex 1.70beta2
#
DISCID=a20c5f0b
DTITLE=Mellonie Irvine - You've Changed
DYEAR=2007
DGENRE=Jazz
TTITLE0=You Don't Know What Love Is
TTITLE1=The Man I Love
TTITLE2=You've Changed
TTITLE3=Save Your Love for Me
TTITLE4=The Meaning of the Blues
TTITLE5=On a Slow Boat to China
TTITLE6=More Than You Know
TTITLE7=Close Your Eyes
TTITLE8=Love Is Here to Stay
TTITLE9=Gee Baby, Ain't I Good to You
TTITLE10=The Shadow of Your Smile
EXTD=YEAR: 2007
EXTT0=
EXTT1=
EXTT2=
EXTT3=
EXTT4=
EXTT5=
EXTT6=
EXTT7=
EXTT8=
EXTT9=
EXTT10=
PLAYORDER=
